<svg width="66" height="24" viewBox="0 0 66 24" fill="none" xmlns="http://www.w3.org/2000/svg">
<path d="M14.2917 8.39089L2.6517 10.6949L14.2917 12.9989V14.7989L0.827699 11.7029V9.66289L14.2917 6.59089V8.39089ZM22.2869 3.30289V9.32689C22.2869 11.1189 21.6709 12.0869 20.4389 12.2309C21.6709 12.3749 22.2869 13.3349 22.2869 15.1109V21.0389C22.2869 21.4069 22.3509 21.6629 22.4789 21.8069C22.6069 21.9669 22.8469 22.0469 23.1989 22.0469H26.3669V23.4629H22.4069C21.6069 23.4629 21.0389 23.2789 20.7029 22.9109C20.3829 22.5429 20.2229 21.9749 20.2229 21.2069V15.6149C20.2229 14.6709 20.0469 13.9909 19.6949 13.5749C19.3589 13.1429 18.8229 12.9269 18.0869 12.9269H17.6549V11.5109H18.0869C18.8389 11.5109 19.3829 11.2949 19.7189 10.8629C20.0549 10.4309 20.2229 9.74289 20.2229 8.79889V3.13489C20.2229 2.36689 20.3829 1.79889 20.7029 1.43089C21.0389 1.06289 21.6069 0.878889 22.4069 0.878889H26.3669V2.29489H23.1989C22.8469 2.29489 22.6069 2.37489 22.4789 2.53489C22.3509 2.67889 22.2869 2.93489 22.2869 3.30289ZM35.1205 9.32689V3.30289C35.1205 2.93489 35.0565 2.67889 34.9285 2.53489C34.8005 2.37489 34.5605 2.29489 34.2085 2.29489H31.0405V0.878889H35.0005C35.8005 0.878889 36.3605 1.06289 36.6805 1.43089C37.0165 1.79889 37.1845 2.36689 37.1845 3.13489V8.79889C37.1845 9.74289 37.3525 10.4309 37.6885 10.8629C38.0245 11.2949 38.5685 11.5109 39.3205 11.5109H39.7525V12.9269H39.3205C38.5845 12.9269 38.0405 13.1429 37.6885 13.5749C37.3525 13.9909 37.1845 14.6709 37.1845 15.6149V21.2069C37.1845 21.9749 37.0165 22.5429 36.6805 22.9109C36.3605 23.2789 35.8005 23.4629 35.0005 23.4629H31.0405V22.0469H34.2085C34.5605 22.0469 34.8005 21.9669 34.9285 21.8069C35.0565 21.6629 35.1205 21.4069 35.1205 21.0389V15.1109C35.1205 13.3349 35.7365 12.3749 36.9685 12.2309C35.7365 12.0869 35.1205 11.1189 35.1205 9.32689ZM51.0402 1.38289H53.1282L43.2642 21.4229H41.1762L51.0402 1.38289ZM64.018 10.6949L52.378 8.39089V6.59089L65.842 9.66289V11.7029L52.378 14.7989V12.9989L64.018 10.6949Z" fill="#64F4AC"/>
</svg>
