<svg width="29" height="24" viewBox="0 0 29 24" fill="none" xmlns="http://www.w3.org/2000/svg">
<path d="M5.40798 3.17203V9.19603C5.40798 10.988 4.79198 11.956 3.55998 12.1C4.79198 12.244 5.40798 13.204 5.40798 14.98V20.908C5.40798 21.276 5.47198 21.532 5.59998 21.676C5.72798 21.836 5.96798 21.916 6.31998 21.916H9.48798V23.332H5.52798C4.72798 23.332 4.15998 23.148 3.82398 22.78C3.50398 22.412 3.34398 21.844 3.34398 21.076V15.484C3.34398 14.54 3.16798 13.86 2.81598 13.444C2.47998 13.012 1.94398 12.796 1.20798 12.796H0.77598V11.38H1.20798C1.95998 11.38 2.50398 11.164 2.83998 10.732C3.17598 10.3 3.34398 9.61203 3.34398 8.66803V3.00403C3.34398 2.23603 3.50398 1.66803 3.82398 1.30003C4.15998 0.932034 4.72798 0.748034 5.52798 0.748034H9.48798V2.16403H6.31998C5.96798 2.16403 5.72798 2.24403 5.59998 2.40403C5.47198 2.54803 5.40798 2.80403 5.40798 3.17203ZM18.2416 9.19603V3.17203C18.2416 2.80403 18.1776 2.54803 18.0496 2.40403C17.9216 2.24403 17.6816 2.16403 17.3296 2.16403H14.1616V0.748034H18.1216C18.9216 0.748034 19.4816 0.932034 19.8016 1.30003C20.1376 1.66803 20.3056 2.23603 20.3056 3.00403V8.66803C20.3056 9.61203 20.4736 10.3 20.8096 10.732C21.1456 11.164 21.6896 11.38 22.4416 11.38H22.8736V12.796H22.4416C21.7056 12.796 21.1616 13.012 20.8096 13.444C20.4736 13.86 20.3056 14.54 20.3056 15.484V21.076C20.3056 21.844 20.1376 22.412 19.8016 22.78C19.4816 23.148 18.9216 23.332 18.1216 23.332H14.1616V21.916H17.3296C17.6816 21.916 17.9216 21.836 18.0496 21.676C18.1776 21.532 18.2416 21.276 18.2416 20.908V14.98C18.2416 13.204 18.8576 12.244 20.0896 12.1C18.8576 11.956 18.2416 10.988 18.2416 9.19603ZM26.2413 9.17203V6.38803H28.6173V9.17203H26.2413ZM26.2413 21.316V15.196H28.6173V16.684L27.0333 21.316H26.2413Z" fill="#64F4AC"/>
</svg>
